<svg width="98" height="15" viewBox="0 0 98 15" fill="none" xmlns="http://www.w3.org/2000/svg">
<g clip-path="url(#clip0_8001_6)">
<path d="M5.04726 0.916405C3.14583 0.916405 1.40952 1.56795 0.0485001 2.65053C0.153579 3.31209 0.283676 3.95362 0.438793 4.58011C1.59467 3.90852 2.94068 3.5226 4.37175 3.5226C8.70502 3.5226 12.2176 7.03595 12.2176 11.3813C12.2176 11.4063 12.2176 11.4264 12.2176 11.4515C11.5222 8.25886 8.68 5.86817 5.28244 5.86817C3.78631 5.86817 2.40027 6.32927 1.25441 7.12115C2.40527 9.93284 4.26668 12.133 7.09881 13.371C8.06954 13.7669 9.15035 14.0727 10.3513 14.2682C10.6915 14.3233 11.0468 14.3684 11.407 14.4085C11.4721 14.4135 11.5371 14.4184 11.6022 14.4235C11.6273 14.4235 11.6573 14.4285 11.6823 14.4335C11.8624 14.4435 12.0425 14.4586 12.2227 14.4636C12.4628 14.4737 12.708 14.4787 12.9582 14.4837V9.85765C12.9582 3.51759 9.3605 0.916405 5.04726 0.916405Z" fill="#fcfaf6"/>
<path d="M22.3483 3.51706C23.7793 3.51706 25.1253 3.90298 26.2812 4.57457C26.4363 3.94808 26.5614 3.30655 26.6715 2.64499C25.3105 1.56242 23.5692 0.910865 21.6728 0.910865C17.3645 0.910865 13.7668 3.51205 13.7668 9.85212V14.4781C14.0169 14.4781 14.2621 14.4681 14.5023 14.4581C14.6875 14.448 14.8627 14.438 15.0427 14.428C15.0677 14.428 15.0978 14.4229 15.1228 14.4179C15.1879 14.4129 15.2529 14.408 15.3179 14.403C15.6783 14.3628 16.0335 14.3177 16.3737 14.2626C17.5747 14.0672 18.6554 13.7614 19.6262 13.3655C22.4584 12.1275 24.3247 9.9273 25.4706 7.11561C24.3298 6.32372 22.9386 5.86263 21.4425 5.86263C18.045 5.86263 15.2078 8.25331 14.5073 11.4459C14.5073 11.4208 14.5073 11.4008 14.5073 11.3758C14.5073 7.03542 18.02 3.51706 22.3533 3.51706H22.3483Z" fill="#fcfaf6"/>
<path fill-rule="evenodd" clip-rule="evenodd" d="M36.0117 1.10092H31.3128V14.2936H36.0117C40.0876 14.2936 43.6119 12.5999 43.6119 7.59921C43.6119 2.59847 40.0343 1.092 36.0117 1.092V1.10092ZM35.7269 11.655H34.1962V3.73054H35.7269C38.4591 3.73054 40.6839 4.57737 40.6839 7.59029C40.6839 10.8172 38.5214 11.6461 35.7269 11.6461V11.655Z" fill="#fcfaf6"/>
<path fill-rule="evenodd" clip-rule="evenodd" d="M53.4546 8.74047C53.4546 10.2648 52.173 11.8692 50.1974 11.8692C48.6667 11.8692 47.2962 10.8709 47.2962 8.92766V1.1101H44.4305V9.32878C44.4305 12.2882 46.3706 14.5881 49.4053 14.5881C50.5534 14.5881 51.3633 14.4365 52.1018 14.0978L53.0631 12.306H53.6682V14.3028H56.3203V1.1101H53.4546V8.74047Z" fill="#fcfaf6"/>
<path fill-rule="evenodd" clip-rule="evenodd" d="M63.8407 0.824596C59.6223 0.824596 57.166 4.03363 57.166 7.70619C57.166 11.8334 59.8448 14.5878 63.9475 14.5878C66.8842 14.5878 68.8332 13.3042 70.0703 11.7799L68.1302 9.80097C67.258 11.0133 66.0388 11.9136 64.1877 11.9136C62.0964 11.9136 60.4143 10.8261 60.0851 8.65107H70.0703C70.0881 8.48171 70.1237 8.14297 70.1237 7.3318C70.1237 3.99798 68.0501 0.824596 63.8318 0.824596H63.8407ZM60.2185 6.29778C60.6903 4.50607 62.0252 3.47205 63.8407 3.47205C65.852 3.47205 67.0445 4.79131 67.1423 6.29778H60.2274H60.2185Z" fill="#fcfaf6"/>
<path fill-rule="evenodd" clip-rule="evenodd" d="M90.9661 9.06206V9.87324C90.9661 11.344 90.0318 11.9859 89.0261 11.9859C88.0205 11.9859 87.086 11.344 87.086 9.87324V5.71932H93.7784V3.11645H87.086V1.10188H84.2204V3.11645H76.2998V1.10188H73.4342V3.11645H70.969V5.71932H73.4342V10.1407C73.4342 12.9932 75.2408 14.5887 78.1331 14.5887C81.0254 14.5887 83.0189 12.8149 83.0189 10.0248V9.06206H80.1889V9.87324C80.1889 11.344 79.2545 11.9859 78.2488 11.9859C77.2432 11.9859 76.3087 11.344 76.3087 9.87324V5.71932H84.2292V10.1407C84.2292 12.9932 86.0359 14.5887 88.9282 14.5887C91.8205 14.5887 93.814 12.8149 93.814 10.0248V9.06206H90.9661Z" fill="#fcfaf6"/>
<path d="M97.4093 4.28323H94.6238V14.3026H97.4093V4.28323Z" fill="#fcfaf6"/>
<path fill-rule="evenodd" clip-rule="evenodd" d="M96.0124 0.0485802C95.1402 0.0485802 94.4283 0.734956 94.4283 1.58179C94.4283 2.42861 95.1402 3.1239 96.0124 3.1239C96.8845 3.1239 97.5965 2.43753 97.5965 1.58179C97.5965 0.726042 96.8845 0.0485802 96.0124 0.0485802Z" fill="#fcfaf6"/>
</g>
<defs>
<clipPath id="clip0_8001_6">
<rect width="97.6171" height="14.5387" fill="white" transform="translate(0.0485382 0.0485382)"/>
</clipPath>
</defs>
</svg>
